<mxfile host="app.diagrams.net" modified="2021-09-20T09:18:11.949Z" agent="5.0 (Macintosh; Intel Mac OS X 10_15_7) AppleWebKit/537.36 (KHTML, like Gecko) Chrome/93.0.4577.82 Safari/537.36" etag="tsEypWuoWUM8g1mEhYIy" version="15.2.9" type="github">
  <diagram id="G2Hpd4jK1jSEEnE9VhZ7" name="Page-1">
    <mxGraphModel dx="873" dy="623" grid="1" gridSize="10" guides="1" tooltips="1" connect="1" arrows="1" fold="1" page="1" pageScale="1" pageWidth="1169" pageHeight="1654" math="0" shadow="0">
      <root>
        <mxCell id="0" />
        <mxCell id="1" parent="0" />
        <mxCell id="Mi_GuX8CZ7eIMLx3hobY-1" value="开始" style="rounded=1;whiteSpace=wrap;html=1;" vertex="1" parent="1">
          <mxGeometry x="230" y="20" width="50" height="20" as="geometry" />
        </mxCell>
        <mxCell id="Mi_GuX8CZ7eIMLx3hobY-2" value="输入删除元素key，&lt;br&gt;HashTable头结点指针 H" style="shape=parallelogram;perimeter=parallelogramPerimeter;whiteSpace=wrap;html=1;fixedSize=1;" vertex="1" parent="1">
          <mxGeometry x="177.5" y="70" width="155" height="50" as="geometry" />
        </mxCell>
        <mxCell id="Mi_GuX8CZ7eIMLx3hobY-3" value="ListNode *p,*L,*pre;&lt;br&gt;p = Find(key,H);" style="rounded=0;whiteSpace=wrap;html=1;" vertex="1" parent="1">
          <mxGeometry x="195" y="150" width="120" height="40" as="geometry" />
        </mxCell>
        <mxCell id="Mi_GuX8CZ7eIMLx3hobY-4" value="p != NULL" style="rhombus;whiteSpace=wrap;html=1;" vertex="1" parent="1">
          <mxGeometry x="198.75" y="210" width="112.5" height="50" as="geometry" />
        </mxCell>
        <mxCell id="Mi_GuX8CZ7eIMLx3hobY-5" value="L = H-&amp;gt;theList[Hash(key,H-&amp;gt;tableSize)];&lt;br&gt;pre = L;&lt;br&gt;" style="rounded=0;whiteSpace=wrap;html=1;" vertex="1" parent="1">
          <mxGeometry x="142.5" y="280" width="225" height="50" as="geometry" />
        </mxCell>
        <mxCell id="Mi_GuX8CZ7eIMLx3hobY-6" value="pre-&amp;gt;next != p" style="rhombus;whiteSpace=wrap;html=1;" vertex="1" parent="1">
          <mxGeometry x="202.5" y="370" width="105" height="50" as="geometry" />
        </mxCell>
        <mxCell id="Mi_GuX8CZ7eIMLx3hobY-7" value="pre = pre-&amp;gt;next;" style="rounded=0;whiteSpace=wrap;html=1;" vertex="1" parent="1">
          <mxGeometry x="360" y="380" width="110" height="30" as="geometry" />
        </mxCell>
        <mxCell id="Mi_GuX8CZ7eIMLx3hobY-8" value="pre-&amp;gt;next = p-&amp;gt;next;&lt;br&gt;free(p);&lt;br&gt;p = NULL;" style="rounded=0;whiteSpace=wrap;html=1;" vertex="1" parent="1">
          <mxGeometry x="195" y="460" width="120" height="60" as="geometry" />
        </mxCell>
        <mxCell id="Mi_GuX8CZ7eIMLx3hobY-9" value="结束" style="rounded=1;whiteSpace=wrap;html=1;" vertex="1" parent="1">
          <mxGeometry x="211.25" y="550" width="88.75" height="30" as="geometry" />
        </mxCell>
        <mxCell id="Mi_GuX8CZ7eIMLx3hobY-10" value="" style="endArrow=classic;html=1;exitX=0.5;exitY=1;exitDx=0;exitDy=0;entryX=0.5;entryY=0;entryDx=0;entryDy=0;" edge="1" parent="1" source="Mi_GuX8CZ7eIMLx3hobY-1" target="Mi_GuX8CZ7eIMLx3hobY-2">
          <mxGeometry width="50" height="50" relative="1" as="geometry">
            <mxPoint x="290" y="110" as="sourcePoint" />
            <mxPoint x="340" y="60" as="targetPoint" />
          </mxGeometry>
        </mxCell>
        <mxCell id="Mi_GuX8CZ7eIMLx3hobY-11" value="" style="endArrow=classic;html=1;exitX=0.5;exitY=1;exitDx=0;exitDy=0;entryX=0.5;entryY=0;entryDx=0;entryDy=0;entryPerimeter=0;" edge="1" parent="1" source="Mi_GuX8CZ7eIMLx3hobY-2" target="Mi_GuX8CZ7eIMLx3hobY-3">
          <mxGeometry width="50" height="50" relative="1" as="geometry">
            <mxPoint x="290" y="150" as="sourcePoint" />
            <mxPoint x="340" y="100" as="targetPoint" />
          </mxGeometry>
        </mxCell>
        <mxCell id="Mi_GuX8CZ7eIMLx3hobY-12" value="" style="endArrow=classic;html=1;exitX=0.5;exitY=1;exitDx=0;exitDy=0;" edge="1" parent="1" source="Mi_GuX8CZ7eIMLx3hobY-3" target="Mi_GuX8CZ7eIMLx3hobY-4">
          <mxGeometry width="50" height="50" relative="1" as="geometry">
            <mxPoint x="290" y="280" as="sourcePoint" />
            <mxPoint x="340" y="230" as="targetPoint" />
          </mxGeometry>
        </mxCell>
        <mxCell id="Mi_GuX8CZ7eIMLx3hobY-13" value="" style="endArrow=classic;html=1;exitX=0.5;exitY=1;exitDx=0;exitDy=0;entryX=0.5;entryY=0;entryDx=0;entryDy=0;" edge="1" parent="1" source="Mi_GuX8CZ7eIMLx3hobY-4" target="Mi_GuX8CZ7eIMLx3hobY-5">
          <mxGeometry width="50" height="50" relative="1" as="geometry">
            <mxPoint x="290" y="310" as="sourcePoint" />
            <mxPoint x="340" y="260" as="targetPoint" />
          </mxGeometry>
        </mxCell>
        <mxCell id="Mi_GuX8CZ7eIMLx3hobY-14" value="" style="endArrow=classic;html=1;exitX=0.5;exitY=1;exitDx=0;exitDy=0;entryX=0.5;entryY=0;entryDx=0;entryDy=0;" edge="1" parent="1" source="Mi_GuX8CZ7eIMLx3hobY-5" target="Mi_GuX8CZ7eIMLx3hobY-6">
          <mxGeometry width="50" height="50" relative="1" as="geometry">
            <mxPoint x="290" y="310" as="sourcePoint" />
            <mxPoint x="340" y="260" as="targetPoint" />
          </mxGeometry>
        </mxCell>
        <mxCell id="Mi_GuX8CZ7eIMLx3hobY-15" value="" style="endArrow=classic;html=1;exitX=0.5;exitY=1;exitDx=0;exitDy=0;" edge="1" parent="1" source="Mi_GuX8CZ7eIMLx3hobY-6">
          <mxGeometry width="50" height="50" relative="1" as="geometry">
            <mxPoint x="290" y="360" as="sourcePoint" />
            <mxPoint x="255" y="460" as="targetPoint" />
          </mxGeometry>
        </mxCell>
        <mxCell id="Mi_GuX8CZ7eIMLx3hobY-16" value="" style="endArrow=classic;html=1;exitX=0.5;exitY=1;exitDx=0;exitDy=0;entryX=0.5;entryY=0;entryDx=0;entryDy=0;" edge="1" parent="1" source="Mi_GuX8CZ7eIMLx3hobY-8" target="Mi_GuX8CZ7eIMLx3hobY-9">
          <mxGeometry width="50" height="50" relative="1" as="geometry">
            <mxPoint x="290" y="640" as="sourcePoint" />
            <mxPoint x="340" y="590" as="targetPoint" />
          </mxGeometry>
        </mxCell>
        <mxCell id="Mi_GuX8CZ7eIMLx3hobY-17" value="" style="endArrow=classic;html=1;exitX=1;exitY=0.5;exitDx=0;exitDy=0;entryX=0;entryY=0.5;entryDx=0;entryDy=0;" edge="1" parent="1" source="Mi_GuX8CZ7eIMLx3hobY-6" target="Mi_GuX8CZ7eIMLx3hobY-7">
          <mxGeometry width="50" height="50" relative="1" as="geometry">
            <mxPoint x="290" y="440" as="sourcePoint" />
            <mxPoint x="340" y="390" as="targetPoint" />
          </mxGeometry>
        </mxCell>
        <mxCell id="Mi_GuX8CZ7eIMLx3hobY-18" value="" style="endArrow=classic;html=1;exitX=0.5;exitY=0;exitDx=0;exitDy=0;" edge="1" parent="1" source="Mi_GuX8CZ7eIMLx3hobY-7">
          <mxGeometry width="50" height="50" relative="1" as="geometry">
            <mxPoint x="290" y="440" as="sourcePoint" />
            <mxPoint x="250" y="350" as="targetPoint" />
            <Array as="points">
              <mxPoint x="415" y="350" />
            </Array>
          </mxGeometry>
        </mxCell>
        <mxCell id="Mi_GuX8CZ7eIMLx3hobY-19" value="Yes" style="text;html=1;align=center;verticalAlign=middle;resizable=0;points=[];autosize=1;strokeColor=none;fillColor=none;" vertex="1" parent="1">
          <mxGeometry x="300" y="370" width="40" height="20" as="geometry" />
        </mxCell>
        <mxCell id="Mi_GuX8CZ7eIMLx3hobY-20" value="Yes" style="text;html=1;align=center;verticalAlign=middle;resizable=0;points=[];autosize=1;strokeColor=none;fillColor=none;" vertex="1" parent="1">
          <mxGeometry x="250" y="260" width="40" height="20" as="geometry" />
        </mxCell>
        <mxCell id="Mi_GuX8CZ7eIMLx3hobY-21" value="No" style="text;html=1;align=center;verticalAlign=middle;resizable=0;points=[];autosize=1;strokeColor=none;fillColor=none;" vertex="1" parent="1">
          <mxGeometry x="255" y="430" width="30" height="20" as="geometry" />
        </mxCell>
      </root>
    </mxGraphModel>
  </diagram>
</mxfile>
